<svg height="512pt" viewBox="-35 0 512 512.001" width="512pt" xmlns="http://www.w3.org/2000/svg"><path d="m40.808594 432.390625c2.96875-1 5.613281-2.597656 7.808594-4.636719 4.296874-4.019531 6.894531-9.707031 6.894531-15.859375v-18.320312h36.070312v18.320312c0 5.707031 2.226563 11.027344 6 14.960938 2.359375 2.472656 5.316407 4.398437 8.703125 5.53125h-65.476562zm0 0" fill="#fedfc5"/><path d="m91.582031 392.726562v11.503907l-8.210937 5.007812c-6.039063 3.675781-13.609375 3.675781-19.648438 0l-8.210937-5.007812v-11.503907zm0 0" fill="#fecbaa"/><path d="m108.789062 328.511719v43.777343c0 6.605469-3.441406 12.734376-9.066406 16.167969l-16.351562 9.960938c-6.039063 3.679687-13.609375 3.679687-19.648438 0l-16.351562-9.960938c-5.632813-3.433593-9.066406-9.5625-9.066406-16.167969v-43.777343c0-12.046875 9.746093-21.800781 21.773437-21.800781h26.941406c12.023438 0 21.769531 9.753906 21.769531 21.800781zm0 0" fill="#fedfc5"/><path d="m87.019531 306.710938h-13.65625c12.023438 0 21.769531 9.753906 21.769531 21.800781v43.777343c0 6.605469-3.441406 12.734376-9.066406 16.167969l-16.351562 9.960938c-.964844.585937-1.96875 1.070312-2.996094 1.46875 5.421875 2.105469 11.578125 1.625 16.652344-1.46875l16.351562-9.960938c5.625-3.433593 9.066406-9.5625 9.066406-16.167969v-43.777343c0-12.046875-9.746093-21.800781-21.769531-21.800781zm0 0" fill="#fecbaa"/><path d="m108.789062 328.511719v20.339843l-44.191406-14.230468c-1.632812-.527344-3.414062-.375-4.933594.417968l-21.359374 11.152344v-17.679687c0-12.046875 9.746093-21.800781 21.769531-21.800781h26.945312c12.023438 0 21.769531 9.753906 21.769531 21.800781zm0 0" fill="#c97f4c"/><path d="m87.019531 306.710938h-13.652343c12.023437 0 21.769531 9.753906 21.769531 21.800781v15.941406l13.652343 4.398437v-20.339843c0-12.046875-9.746093-21.800781-21.769531-21.800781zm0 0" fill="#aa6344"/><path d="m6.085938 512c-3.359376 0-6.085938-2.726562-6.085938-6.085938v-30.570312c0-17.453125 11.125-32.960938 27.648438-38.523438l13.160156-4.429687c2.972656-1 5.613281-2.601563 7.804687-4.644531 7.066407 2.566406 15.382813 4.292968 24.789063 4.09375 9.257812-.199219 17.355468-2.234375 24.175781-4.980469 2.355469 2.472656 5.316406 4.394531 8.707031 5.53125l13.164063 4.429687c16.511719 5.566407 27.644531 21.070313 27.644531 38.527344v36.652344zm0 0" fill="#ffb14c"/><path d="m72.695312 431.957031-15.476562 54.707031c-.398438 1.410157-.050781 2.929688.929688 4.019532l11.519531 12.84375c1.640625 1.832031 4.488281 1.902344 6.21875.15625l12.820312-12.921875c1.113281-1.128907 1.515625-2.777344 1.042969-4.289063zm0 0" fill="#ff8812"/><path d="m187.910156 432.390625c2.964844-1 5.601563-2.597656 7.796875-4.636719 4.308594-4.019531 6.90625-9.707031 6.90625-15.859375v-20.113281h36.058594v20.113281c0 5.707031 2.238281 11.027344 6 14.960938 2.359375 2.472656 5.316406 4.398437 8.703125 5.53125h-65.464844zm0 0" fill="#fecbaa"/><path d="m238.671875 391.785156v12.445313l-8.210937 5.007812c-6.027344 3.675781-13.609376 3.675781-19.648438 0l-8.199219-5v-12.457031h36.058594zm0 0" fill="#ffae85"/><path d="m255.878906 328.511719v43.777343c0 6.605469-3.429687 12.734376-9.066406 16.167969l-16.351562 9.960938c-6.027344 3.679687-13.609376 3.679687-19.648438 0l-16.351562-9.960938c-5.625-3.433593-9.066407-9.5625-9.066407-16.167969v-43.777343c0-12.046875 9.746094-21.800781 21.773438-21.800781h26.953125c12.011718 0 21.757812 9.753906 21.757812 21.800781zm0 0" fill="#fecbaa"/><path d="m234.121094 306.710938h-18.027344c12.015625 0 21.761719 9.753906 21.761719 21.800781v43.777343c0 6.605469-3.433594 12.734376-9.066407 16.167969l-16.351562 9.960938c-.265625.164062-.539062.308593-.8125.457031 5.898438 3.207031 13.074219 3.058594 18.835938-.457031l16.351562-9.960938c5.636719-3.433593 9.066406-9.5625 9.066406-16.167969v-43.777343c0-12.046875-9.746094-21.800781-21.757812-21.800781zm0 0" fill="#ffae85"/><path d="m255.878906 328.511719v20.339843l-46.746094-15.054687-23.738281 12.394531v-17.679687c0-12.046875 9.746094-21.800781 21.769531-21.800781h26.957032c12.011718 0 21.757812 9.753906 21.757812 21.800781zm0 0" fill="#aa6344"/><path d="m234.125 306.710938h-18.027344c12.015625 0 21.761719 9.753906 21.761719 21.800781v14.535156l18.027344 5.804687v-20.339843c0-12.046875-9.75-21.800781-21.761719-21.800781zm0 0" fill="#7f4233"/><path d="m147.09375 512v-36.65625c0-17.453125 11.125-32.960938 27.648438-38.523438l13.164062-4.429687c2.96875-1 5.609375-2.601563 7.804688-4.644531 7.0625 2.566406 15.378906 4.292968 24.785156 4.09375 9.257812-.199219 17.355468-2.234375 24.175781-4.980469 2.359375 2.472656 5.320313 4.394531 8.710937 5.53125l13.160157 4.429687c16.515625 5.566407 27.648437 21.070313 27.648437 38.527344v36.652344zm0 0" fill="#83d9ff"/><path d="m219.789062 431.957031-15.476562 54.707031c-.398438 1.410157-.046875 2.929688.933594 4.019532l11.515625 12.84375c1.644531 1.832031 4.488281 1.902344 6.222656.15625l12.816406-12.921875c1.117188-1.128907 1.519531-2.777344 1.042969-4.289063zm0 0" fill="#43a3f9"/><path d="m188.300781 125.679688c2.964844-1 5.613281-2.59375 7.808594-4.636719 4.296875-4.007813 6.894531-9.703125 6.894531-15.855469v-22.328125h36.070313v22.328125c0 5.707031 2.226562 11.035156 6 14.96875 2.347656 2.472656 5.3125 4.390625 8.703125 5.523438zm0 0" fill="#fedfc5"/><path d="m239.074219 82.859375v15.703125l-8.210938 5.003906c-6.039062 3.679688-13.621093 3.679688-19.648437 0l-8.210938-5.003906v-15.703125zm0 0" fill="#fecbaa"/><path d="m256.28125 21.800781v43.789063c0 6.59375-3.441406 12.726562-9.066406 16.15625l-16.351563 9.976562c-6.039062 3.675782-13.621093 3.675782-19.648437 0l-16.351563-9.976562c-5.636719-3.429688-9.066406-9.558594-9.066406-16.15625v-43.789063c0-12.042969 9.746094-21.800781 21.769531-21.800781h26.945313c12.023437 0 21.769531 9.757812 21.769531 21.800781zm0 0" fill="#fedfc5"/><path d="m234.511719 0h-18.039063c12.027344 0 21.773438 9.757812 21.773438 21.800781v43.789063c0 6.59375-3.441406 12.726562-9.066406 16.15625l-16.351563 9.976562c-.265625.160156-.535156.304688-.808594.453125 5.890625 3.207031 13.070313 3.0625 18.84375-.453125l16.351563-9.976562c5.625-3.429688 9.066406-9.558594 9.066406-16.15625v-43.789063c0-12.042969-9.746094-21.800781-21.769531-21.800781zm0 0" fill="#fecbaa"/><path d="m256.28125 21.800781v20.339844l-46.746094-15.042969-23.738281 12.394532v-17.691407c0-12.042969 9.746094-21.800781 21.769531-21.800781h26.945313c12.023437 0 21.769531 9.757812 21.769531 21.800781zm0 0" fill="#618aaa"/><path d="m234.511719 0h-18.039063c12.027344 0 21.773438 9.757812 21.773438 21.800781v14.535157l18.035156 5.804687v-20.339844c0-12.042969-9.746094-21.800781-21.769531-21.800781zm0 0" fill="#4f7693"/><path d="m151.996094 205.292969c-2.488282 0-4.503906-2.015625-4.503906-4.503907v-32.148437c0-17.457031 11.121093-32.960937 27.648437-38.527344l13.160156-4.429687c2.96875-1 5.613281-2.601563 7.804688-4.640625 7.066406 2.5625 15.382812 4.292969 24.785156 4.089843 9.261719-.199218 17.359375-2.230468 24.175781-4.976562 2.359375 2.46875 5.320313 4.394531 8.710938 5.527344l13.160156 4.429687c16.515625 5.566407 27.648438 21.070313 27.648438 38.527344v32.148437c0 2.488282-2.015626 4.503907-4.503907 4.503907zm0 0" fill="#a7c7d3"/><path d="m220.183594 125.25-15.523438 54.875c-.367187 1.308594-.042968 2.714844.863282 3.722656l11.855468 13.21875c1.523438 1.699219 4.160156 1.765625 5.765625.148438l13.183594-13.292969c1.035156-1.042969 1.40625-2.574219.96875-3.976563zm0 0" fill="#618aaa"/><path d="m335 432.390625c2.964844-1 5.613281-2.597656 7.808594-4.636719 4.296875-4.019531 6.894531-9.707031 6.894531-15.859375v-19.988281h36.070313v19.988281c0 5.707031 2.226562 11.027344 6 14.960938 2.347656 2.472656 5.3125 4.398437 8.703124 5.53125h-65.476562zm0 0" fill="#fedfc5"/><path d="m385.773438 391.90625v12.839844l-8.210938 5.007812c-6.039062 3.675782-13.621094 3.675782-19.648438 0l-8.210937-5.007812v-12.839844zm0 0" fill="#fecbaa"/><path d="m402.980469 328.511719v43.777343c0 6.605469-3.441407 12.734376-9.066407 16.167969l-16.351562 9.960938c-6.039062 3.679687-13.621094 3.679687-19.648438 0l-16.351562-9.960938c-5.636719-3.433593-9.066406-9.5625-9.066406-16.167969v-43.777343c0-12.046875 9.746094-21.800781 21.761718-21.800781h26.953126c12.023437 0 21.769531 9.753906 21.769531 21.800781zm0 0" fill="#fedfc5"/><path d="m381.210938 306.710938h-16.496094c12.027344 0 21.773437 9.753906 21.773437 21.800781v43.777343c0 6.605469-3.441406 12.734376-9.066406 16.167969l-16.351563 9.960938c-.515624.316406-1.042968.589843-1.578124.851562 5.734374 2.789063 12.546874 2.511719 18.070312-.851562l16.351562-9.960938c5.625-3.433593 9.066407-9.5625 9.066407-16.167969v-43.777343c0-12.046875-9.746094-21.800781-21.769531-21.800781zm0 0" fill="#fecbaa"/><path d="m402.980469 328.511719v20.339843l-46.746094-15.054687-23.738281 12.394531v-17.679687c0-12.046875 9.746094-21.800781 21.761718-21.800781h26.953126c12.023437 0 21.769531 9.753906 21.769531 21.800781zm0 0" fill="#618aaa"/><path d="m381.160156 306.710938h-16.492187c12.023437 0 21.773437 9.753906 21.773437 21.800781v15.027343l16.492188 5.3125v-20.339843c0-12.046875-9.75-21.800781-21.773438-21.800781zm0 0" fill="#4f7693"/><path d="m294.191406 512v-36.65625c0-17.453125 11.121094-32.960938 27.644532-38.523438l13.164062-4.429687c2.96875-1 5.609375-2.601563 7.804688-4.644531 7.0625 2.566406 15.378906 4.292968 24.785156 4.09375 9.257812-.199219 17.355468-2.234375 24.175781-4.980469 2.359375 2.472656 5.320313 4.394531 8.710937 5.53125l13.160157 4.429687c16.515625 5.566407 27.648437 21.070313 27.648437 38.527344v30.566406c0 3.363282-2.726562 6.085938-6.085937 6.085938zm0 0" fill="#ffb14c"/><path d="m366.882812 431.957031-15.476562 54.707031c-.398438 1.410157-.046875 2.929688.933594 4.019532l11.515625 12.84375c1.644531 1.832031 4.488281 1.902344 6.222656.15625l12.816406-12.921875c1.117188-1.128907 1.519531-2.777344 1.046875-4.289063zm0 0" fill="#ff8812"/><g fill="#a7c7d3"><path d="m367.734375 284.113281c-4.265625 0-7.726563-3.460937-7.726563-7.726562 0-7.101563-5.777343-12.878907-12.878906-12.878907h-252.976562c-7.105469 0-12.878906 5.777344-12.878906 12.878907 0 4.269531-3.460938 7.726562-7.730469 7.726562-4.265625 0-7.726563-3.460937-7.726563-7.726562 0-15.625 12.710938-28.332031 28.335938-28.332031h252.976562c15.625 0 28.335938 12.710937 28.335938 28.332031-.003906 4.265625-3.460938 7.726562-7.730469 7.726562zm0 0"/><path d="m220.636719 284.113281c-4.265625 0-7.726563-3.460937-7.726563-7.726562v-42.242188c0-4.269531 3.460938-7.730469 7.726563-7.730469 4.269531 0 7.730469 3.460938 7.730469 7.730469v42.242188c0 4.265625-3.460938 7.726562-7.730469 7.726562zm0 0"/></g></svg>